<?xml version="1.0" standalone="no"?>
<svg xmlns="http://www.w3.org/2000/svg" viewBox="0 0 157.5 27.965" width="157.5" height="27.965"><path fill="#fff" fill-rule="nonzero" d="M3.72 17.57Q1.97 17.57 0.53 16.75L0.53 16.75Q0 16.44 0 15.86L0 15.86Q0 15.48 0.25 15.18Q0.50 14.88 0.91 14.88L0.91 14.88Q1.15 14.88 1.34 14.98L1.34 14.98Q2.45 15.50 3.58 15.50L3.58 15.50Q4.87 15.50 5.68 14.76Q6.48 14.02 6.48 11.95L6.48 11.95L6.48 1.56Q6.48 1.10 6.79 0.78Q7.10 0.46 7.56 0.46L7.56 0.46Q8.02 0.46 8.34 0.78Q8.66 1.10 8.66 1.56L8.66 1.56L8.66 11.81Q8.66 14.95 7.26 16.26Q5.86 17.57 3.72 17.57L3.72 17.57ZM18.24 17.57Q15.31 17.57 13.67 15.90Q12.02 14.23 12.02 11.21L12.02 11.21Q12.02 9.50 12.65 8.06Q13.27 6.62 14.57 5.74Q15.86 4.85 17.76 4.85L17.76 4.85Q19.54 4.85 20.83 5.68Q22.13 6.50 22.80 7.88Q23.47 9.26 23.47 10.90L23.47 10.90Q23.47 11.35 23.17 11.66Q22.87 11.98 22.37 11.98L22.37 11.98L14.23 11.98Q14.42 13.66 15.48 14.59Q16.54 15.53 18.43 15.53L18.43 15.53Q19.44 15.53 20.20 15.34Q20.95 15.14 21.67 14.78L21.67 14.78Q21.86 14.69 22.10 14.69L22.10 14.69Q22.49 14.69 22.78 14.95Q23.06 15.22 23.06 15.62L23.06 15.62Q23.06 16.15 22.44 16.51L22.44 16.51Q21.50 17.04 20.59 17.30Q19.68 17.57 18.24 17.57L18.24 17.57ZM14.23 10.20L21.31 10.20Q21.24 9.02 20.70 8.23Q20.16 7.44 19.37 7.07Q18.58 6.70 17.76 6.70L17.76 6.70Q16.94 6.70 16.15 7.07Q15.36 7.44 14.83 8.23Q14.30 9.02 14.23 10.20L14.23 10.20ZM17.71 3.72Q17.42 3.72 17.24 3.54Q17.06 3.36 17.06 3.07L17.06 3.07Q17.06 2.86 17.23 2.62L17.23 2.62L18.46 0.46Q18.70 0 19.25 0L19.25 0Q19.63 0 19.88 0.24Q20.14 0.48 20.14 0.89L20.14 0.89Q20.14 1.22 19.90 1.49L19.90 1.49L18.24 3.46Q18.02 3.72 17.71 3.72L17.71 3.72ZM27.43 17.45Q26.98 17.45 26.66 17.14Q26.35 16.82 26.35 16.37L26.35 16.37L26.35 6.07Q26.35 5.62 26.66 5.29Q26.98 4.97 27.43 4.97L27.43 4.97Q27.89 4.97 28.21 5.29Q28.54 5.62 28.54 6.07L28.54 6.07L28.54 7.10Q30.22 4.85 32.30 4.85L32.30 4.85L32.42 4.85Q32.88 4.85 33.18 5.16Q33.48 5.47 33.48 5.93L33.48 5.93Q33.48 6.38 33.17 6.67Q32.86 6.96 32.38 6.96L32.38 6.96L32.26 6.96Q31.10 6.96 30.14 7.52Q29.18 8.09 28.54 9.07L28.54 9.07L28.54 16.37Q28.54 16.82 28.21 17.14Q27.89 17.45 27.43 17.45L27.43 17.45ZM40.66 17.57Q37.73 17.57 36.08 15.90Q34.44 14.23 34.44 11.21L34.44 11.21Q34.44 9.50 35.06 8.06Q35.69 6.62 36.98 5.74Q38.28 4.85 40.18 4.85L40.18 4.85Q41.95 4.85 43.25 5.68Q44.54 6.50 45.22 7.88Q45.89 9.26 45.89 10.90L45.89 10.90Q45.89 11.35 45.59 11.66Q45.29 11.98 44.78 11.98L44.78 11.98L36.65 11.98Q36.84 13.66 37.90 14.59Q38.95 15.53 40.85 15.53L40.85 15.53Q41.86 15.53 42.61 15.34Q43.37 15.14 44.09 14.78L44.09 14.78Q44.28 14.69 44.52 14.69L44.52 14.69Q44.90 14.69 45.19 14.95Q45.48 15.22 45.48 15.62L45.48 15.62Q45.48 16.15 44.86 16.51L44.86 16.51Q43.92 17.04 43.01 17.30Q42.10 17.57 40.66 17.57L40.66 17.57ZM36.65 10.20L43.73 10.20Q43.66 9.02 43.12 8.23Q42.58 7.44 41.78 7.07Q40.99 6.70 40.18 6.70L40.18 6.70Q39.36 6.70 38.57 7.07Q37.78 7.44 37.25 8.23Q36.72 9.02 36.65 10.20L36.65 10.20ZM40.13 3.72Q39.84 3.72 39.66 3.54Q39.48 3.36 39.48 3.07L39.48 3.07Q39.48 2.86 39.65 2.62L39.65 2.62L40.87 0.46Q41.11 0 41.66 0L41.66 0Q42.05 0 42.30 0.24Q42.55 0.48 42.55 0.89L42.55 0.89Q42.55 1.22 42.31 1.49L42.31 1.49L40.66 3.46Q40.44 3.72 40.13 3.72L40.13 3.72ZM49.85 17.45Q49.39 17.45 49.08 17.14Q48.77 16.82 48.77 16.37L48.77 16.37L48.77 6.07Q48.77 5.62 49.08 5.29Q49.39 4.97 49.85 4.97L49.85 4.97Q50.30 4.97 50.63 5.29Q50.95 5.62 50.95 6.07L50.95 6.07L50.95 7.06Q51.62 6.10 52.57 5.47Q53.52 4.85 55.03 4.85L55.03 4.85Q56.38 4.85 57.34 5.57Q58.30 6.29 58.70 7.32L58.70 7.32Q60.19 4.85 63.12 4.85L63.12 4.85Q64.46 4.85 65.36 5.52Q66.26 6.19 66.70 7.25Q67.13 8.30 67.13 9.46L67.13 9.46L67.13 16.37Q67.13 16.82 66.80 17.14Q66.48 17.45 66.02 17.45L66.02 17.45Q65.57 17.45 65.26 17.14Q64.94 16.82 64.94 16.37L64.94 16.37L64.94 9.89Q64.94 8.33 64.39 7.60Q63.84 6.86 62.50 6.86L62.50 6.86Q61.27 6.86 60.47 7.50Q59.66 8.14 59.04 9.17L59.04 9.17L59.04 16.37Q59.04 16.82 58.72 17.14Q58.39 17.45 57.94 17.45L57.94 17.45Q57.48 17.45 57.17 17.14Q56.86 16.82 56.86 16.37L56.86 16.37L56.86 9.89Q56.86 8.33 56.30 7.60Q55.75 6.86 54.41 6.86L54.41 6.86Q53.18 6.86 52.38 7.50Q51.58 8.14 50.95 9.17L50.95 9.17L50.95 16.37Q50.95 16.82 50.63 17.14Q50.30 17.45 49.85 17.45L49.85 17.45ZM71.83 2.59Q71.33 2.59 70.97 2.23Q70.61 1.87 70.61 1.37L70.61 1.37L70.61 1.27Q70.61 0.77 70.97 0.41Q71.33 0.05 71.83 0.05L71.83 0.05L71.98 0.05Q72.48 0.05 72.84 0.41Q73.20 0.77 73.20 1.27L73.20 1.27L73.20 1.37Q73.20 1.87 72.84 2.23Q72.48 2.59 71.98 2.59L71.98 2.59L71.83 2.59ZM71.88 17.45Q71.42 17.45 71.11 17.14Q70.80 16.82 70.80 16.37L70.80 16.37L70.80 6.07Q70.80 5.62 71.11 5.29Q71.42 4.97 71.88 4.97L71.88 4.97Q72.36 4.97 72.67 5.28Q72.98 5.59 72.98 6.07L72.98 6.07L72.98 16.37Q72.98 16.82 72.66 17.14Q72.34 17.45 71.88 17.45L71.88 17.45ZM82.25 17.57Q79.32 17.57 77.68 15.90Q76.03 14.23 76.03 11.21L76.03 11.21Q76.03 9.50 76.66 8.06Q77.28 6.62 78.58 5.74Q79.87 4.85 81.77 4.85L81.77 4.85Q83.54 4.85 84.84 5.68Q86.14 6.50 86.81 7.88Q87.48 9.26 87.48 10.90L87.48 10.90Q87.48 11.35 87.18 11.66Q86.88 11.98 86.38 11.98L86.38 11.98L78.24 11.98Q78.43 13.66 79.49 14.59Q80.54 15.53 82.44 15.53L82.44 15.53Q83.45 15.53 84.20 15.34Q84.96 15.14 85.68 14.78L85.68 14.78Q85.87 14.69 86.11 14.69L86.11 14.69Q86.50 14.69 86.78 14.95Q87.07 15.22 87.07 15.62L87.07 15.62Q87.07 16.15 86.45 16.51L86.45 16.51Q85.51 17.04 84.60 17.30Q83.69 17.57 82.25 17.57L82.25 17.57ZM78.24 10.20L85.32 10.20Q85.25 9.02 84.71 8.23Q84.17 7.44 83.38 7.07Q82.58 6.70 81.77 6.70L81.77 6.70Q80.95 6.70 80.16 7.07Q79.37 7.44 78.84 8.23Q78.31 9.02 78.24 10.20L78.24 10.20ZM98.11 17.45Q97.66 17.45 97.34 17.14Q97.03 16.82 97.03 16.37L97.03 16.37L97.03 1.56Q97.03 1.10 97.34 0.78Q97.66 0.46 98.11 0.46L98.11 0.46Q98.57 0.46 98.89 0.78Q99.22 1.10 99.22 1.56L99.22 1.56L99.22 7.94L108.31 7.94L108.31 1.56Q108.31 1.10 108.62 0.78Q108.94 0.46 109.39 0.46L109.39 0.46Q109.85 0.46 110.17 0.78Q110.50 1.10 110.50 1.56L110.50 1.56L110.50 16.37Q110.50 16.82 110.17 17.14Q109.85 17.45 109.39 17.45L109.39 17.45Q108.94 17.45 108.62 17.14Q108.31 16.82 108.31 16.37L108.31 16.37L108.31 9.98L99.22 9.98L99.22 16.37Q99.22 16.82 98.89 17.14Q98.57 17.45 98.11 17.45L98.11 17.45Z" transform="translate(0, 5.199)"></path><line x1="119.496" y1="2%" x2="119.496" y2="98%" stroke="#fff" stroke-linecap="round"></line><g fill="#ea6f23" color="#ea6f23" transform="translate(128.49599999999998 0) scale(0.5178572)"><svg width="56.0" height="54.0" x="0.0" y="0.0" viewBox="0 0 56 54"><path fill="currentColor" fill-rule="evenodd" d="M20.14 11.806c.69 0 1.248.302 1.248.676 0 .373-.559.676-1.248.676-.69 0-1.248-.303-1.248-.676 0-.374.559-.676 1.248-.676m20.405 21.523l.534.01c5.6.225 9.9 4.467 9.9 10.137 0 0 .297 5.7-3.224 9.674-.285.323-.808.047-.72-.374.324-1.532.214-3.749-2.713-4.567-2.838-.792-5.67-.042-8.392.814-5.072 1.593-10.064 4.536-15.43 4.937-2.73.204-5.532-.369-7.9-1.742-4.398-2.548-6.242-7.656-6.572-12.497-.023-.334-.097-1.047.156-1.103.367-.077.692.66.855.874.337.445.72.855 1.141 1.221 2.783 2.425 6.471 2.177 9.853 1.42 3.721-.832 6.965-2.528 10.252-4.388 3.181-1.8 6.462-3.691 10.13-4.252.88-.135 1.774-.19 2.664-.154zm1.404 5.878c-1.67-.286-3.379-.148-5.01.232-1.627.412-3.168 1.058-4.6 1.858a29.406 29.406 0 0 0-4.054 2.738c1.534-.572 3.004-1.25 4.477-1.864 1.477-.602 2.954-1.16 4.47-1.518a16.128 16.128 0 0 1 4.608-.477 13.26 13.26 0 0 1 4.59 1.103c-1.223-1.096-2.818-1.798-4.481-2.072zM21.752 0c1.066 0 3.484 3.12 3.484 3.12S32.44 7.49 35.533 15.653c3.094 8.165-3.068 15.965-3.068 15.965a21.32 21.32 0 0 0 .759-4.477c.047-.834.038-1.671-.026-2.503-.022-.278-.138-.71-.229-1.134-.056-.262-.4-.307-.537-.077a4.679 4.679 0 0 1-1.004 1.177c-.049-1.565-.206-3.147-.744-4.618-.462-1.262-1.228-2.444-2.29-3.253a.252.252 0 0 0-.401.243 4.672 4.672 0 0 1-.116 2.121c-1.659-1.66-3.973-2.53-6.294-2.886-1.924-.295-3.877-.266-5.827-.224-.377.008-.494.51-.164.692 1.58.875 3.253 1.227 5.08 1.589 2.24.444 4.149 1.495 5.5 3.366 2.03 2.809 1.345 9.595.963 12.34a2.533 2.533 0 0 1-1.21 1.827c-2.498 1.493-5.553 2.77-9.429 3.567-1.91.392-3.986.347-5.839-.3-.903-.315-1.758-.85-2.29-1.646-.653-.976-.749-2.253-.45-3.389.3-1.136.96-2.146 1.717-3.044 2.322-2.753 5.518-4.529 8.224-6.853 1.123-.964 2.342-2.005 2.822-3.471.023-.068.295-1.26.084-1.267-3.207-.114-8.018-1.093-9.7-4.246-.1-.185-.188-.397-.136-.6.065-.257.325-.407.56-.528 2.168-1.113 4.257-2.135 6.102-3.767a19.55 19.55 0 0 0 2.2-2.29c.297-.364 1.429-1.346 1.39-1.83 0-.001-.494-6.137.572-6.137z"></path></svg></g></svg>